<svg width="23" height="24" viewBox="0 0 23 24" fill="none" xmlns="http://www.w3.org/2000/svg">
<path d="M11.4059 11.8688C14.4702 11.8688 16.9544 9.38466 16.9544 6.32028C16.9544 3.2559 14.4702 0.771729 11.4059 0.771729C8.34147 0.771729 5.8573 3.2559 5.8573 6.32028C5.8573 9.38466 8.34147 11.8688 11.4059 11.8688Z" stroke="#221F20" stroke-width="2" stroke-miterlimit="10" stroke-linecap="round"/>
<path d="M0.771729 23.2279H22.0476C22.047 21.3867 21.568 19.5772 20.6576 17.9768C19.7471 16.3764 18.4365 15.04 16.854 14.0987C16.5763 13.9391 16.2636 13.85 15.9434 13.8392C15.6232 13.8285 15.3053 13.8964 15.0174 14.0369C13.8875 14.5681 12.6543 14.8436 11.4058 14.8436C10.1573 14.8436 8.92413 14.5681 7.79424 14.0369C7.50772 13.8964 7.19101 13.8285 6.87205 13.8392C6.55309 13.85 6.24168 13.9391 5.9653 14.0987C4.38288 15.04 3.07221 16.3764 2.16175 17.9768C1.2513 19.5772 0.772307 21.3867 0.771729 23.2279Z" stroke="#221F20" stroke-width="2" stroke-miterlimit="10" stroke-linecap="round"/>
</svg>
