<svg width="26" height="24" viewBox="0 0 26 24" fill="none" xmlns="http://www.w3.org/2000/svg">
<g clip-path="url(#clip0_65_143)">
<path d="M-0.23535 18.9636C-0.23535 19.9476 0.0894499 20.7844 0.73905 21.474C1.38865 22.1636 2.17945 22.508 3.11145 22.5072H21.0466C21.9786 22.5072 22.7695 22.1628 23.4191 21.474C24.0687 20.7852 24.3934 19.9484 24.3934 18.9636V4.69078C24.3934 3.70678 24.0655 2.86038 23.4095 2.15158C22.7535 1.44278 21.9659 1.08838 21.0466 1.08838H3.11145C2.19305 1.08838 1.40545 1.44278 0.74865 2.15158C0.0918499 2.86038 -0.23615 3.70678 -0.23535 4.69078V18.9636ZM8.72265 16.3848V7.26958C8.72265 7.17758 8.74905 7.10558 8.80185 7.05358C8.84105 7.04078 8.87385 7.03438 8.90025 7.03438L8.99865 7.05358L17.5823 11.6208C17.6351 11.6736 17.6615 11.7392 17.6615 11.8176C17.6615 11.8704 17.6351 11.9228 17.5823 11.9748L8.99865 16.542C8.97225 16.5684 8.94585 16.5816 8.91945 16.5816C8.86665 16.5816 8.82745 16.5684 8.80185 16.542C8.74905 16.4892 8.72265 16.4368 8.72265 16.3848Z" fill="#262626"/>
</g>
<defs>
<clipPath id="clip0_65_143">
<rect width="25.2" height="24" fill="white"/>
</clipPath>
</defs>
</svg>
