<svg width="23" height="24" viewBox="0 0 23 24" fill="none" xmlns="http://www.w3.org/2000/svg">
<path d="M21.6602 0.973246C22.0114 0.973246 22.309 1.09525 22.553 1.33925C22.797 1.58325 22.919 1.88085 22.919 2.23205V22.1964C22.919 22.5476 22.797 22.8452 22.553 23.0892C22.309 23.3332 22.0114 23.4552 21.6602 23.4552H15.9818V14.79H18.8798L19.2902 11.3652H15.9818V9.16925C15.9818 8.64205 16.099 8.24205 16.3334 7.96925C16.5678 7.69645 16.997 7.55965 17.621 7.55885H19.4066V4.51445C18.6258 4.43605 17.7574 4.39685 16.8014 4.39685C15.4942 4.39685 14.4402 4.78245 13.6394 5.55365C12.8386 6.32485 12.4386 7.41285 12.4394 8.81765V11.364H9.54141V14.7888H12.4394V23.454H1.69581C1.34461 23.454 1.04701 23.332 0.803012 23.088C0.559012 22.844 0.437012 22.5464 0.437012 22.1952V2.23085C0.437012 1.87965 0.559012 1.58205 0.803012 1.33805C1.04701 1.09405 1.34461 0.972046 1.69581 0.972046L21.6602 0.973246Z" fill="#262626"/>
</svg>
