<svg width="24" height="24" viewBox="0 0 24 24" fill="none" xmlns="http://www.w3.org/2000/svg">
          <g clip-path="url(#clip0_1_453)">
          <path d="M12.0002 2.32026C15.1549 2.32026 15.5252 2.33433 16.7721 2.39058C17.9252 2.44214 18.5486 2.63433 18.9658 2.79839C19.5189 3.01401 19.9127 3.26714 20.3252 3.67964C20.7377 4.09214 20.9955 4.48589 21.2064 5.03901C21.3658 5.4562 21.5627 6.07964 21.6143 7.23276C21.6705 8.47964 21.6846 8.84995 21.6846 12.0046C21.6846 15.1593 21.6705 15.5296 21.6143 16.7765C21.5627 17.9296 21.3705 18.5531 21.2064 18.9703C20.9908 19.5234 20.7377 19.9171 20.3252 20.3296C19.9127 20.7421 19.5189 21 18.9658 21.2109C18.5486 21.3703 17.9252 21.5671 16.7721 21.6187C15.5252 21.675 15.1549 21.689 12.0002 21.689C8.84551 21.689 8.47519 21.675 7.22832 21.6187C6.07519 21.5671 5.45176 21.375 5.03457 21.2109C4.48145 20.9953 4.0877 20.7421 3.6752 20.3296C3.2627 19.9171 3.00488 19.5234 2.79395 18.9703C2.63457 18.5531 2.4377 17.9296 2.38613 16.7765C2.32988 15.5296 2.31582 15.1593 2.31582 12.0046C2.31582 8.84995 2.32988 8.47964 2.38613 7.23276C2.4377 6.07964 2.62988 5.4562 2.79395 5.03901C3.00957 4.48589 3.2627 4.09214 3.6752 3.67964C4.0877 3.26714 4.48145 3.00933 5.03457 2.79839C5.45176 2.63901 6.07519 2.44214 7.22832 2.39058C8.47519 2.32964 8.84551 2.32026 12.0002 2.32026ZM12.0002 0.192139C8.79395 0.192139 8.39082 0.206201 7.12988 0.262451C5.87363 0.318701 5.01582 0.520264 4.26582 0.810889C3.4877 1.11089 2.83145 1.5187 2.1752 2.17495C1.51895 2.8312 1.11582 3.49214 0.811133 4.26558C0.520508 5.01558 0.318945 5.87339 0.262695 7.13433C0.206445 8.39058 0.192383 8.7937 0.192383 12C0.192383 15.2062 0.206445 15.6093 0.262695 16.8703C0.318945 18.1265 0.520508 18.9843 0.811133 19.739C1.11113 20.5171 1.51895 21.1734 2.1752 21.8296C2.83145 22.4859 3.49238 22.889 4.26582 23.1937C5.01582 23.4843 5.87363 23.6859 7.13457 23.7421C8.39551 23.7984 8.79395 23.8125 12.0049 23.8125C15.2158 23.8125 15.6143 23.7984 16.8752 23.7421C18.1314 23.6859 18.9893 23.4843 19.7439 23.1937C20.5221 22.8937 21.1783 22.4859 21.8346 21.8296C22.4908 21.1734 22.8939 20.5125 23.1986 19.739C23.4893 18.989 23.6908 18.1312 23.7471 16.8703C23.8033 15.6093 23.8174 15.2109 23.8174 12C23.8174 8.78901 23.8033 8.39058 23.7471 7.12964C23.6908 5.87339 23.4893 5.01558 23.1986 4.26089C22.8986 3.48276 22.4908 2.82651 21.8346 2.17026C21.1783 1.51401 20.5174 1.11089 19.7439 0.806201C18.9939 0.515576 18.1361 0.314014 16.8752 0.257764C15.6096 0.206201 15.2064 0.192139 12.0002 0.192139Z" fill="#221F20"></path>
          <path d="M12.0002 5.93433C8.65332 5.93433 5.93457 8.64839 5.93457 12C5.93457 15.3515 8.65332 18.0656 12.0002 18.0656C15.3471 18.0656 18.0658 15.3468 18.0658 12C18.0658 8.65308 15.3471 5.93433 12.0002 5.93433ZM12.0002 15.9375C9.82519 15.9375 8.0627 14.175 8.0627 12C8.0627 9.82495 9.82519 8.06245 12.0002 8.06245C14.1752 8.06245 15.9377 9.82495 15.9377 12C15.9377 14.175 14.1752 15.9375 12.0002 15.9375Z" fill="#221F20"></path>
          <path d="M18.3048 7.11091C19.0866 7.11091 19.7204 6.47712 19.7204 5.69529C19.7204 4.91346 19.0866 4.27966 18.3048 4.27966C17.523 4.27966 16.8892 4.91346 16.8892 5.69529C16.8892 6.47712 17.523 7.11091 18.3048 7.11091Z" fill="#221F20"></path>
          </g>
          <defs>
          <clipPath id="clip0_1_453">
          <rect width="24" height="24" fill="#221F20"></rect>
          </clipPath>
          </defs>
        </svg>