<svg width="24" height="20" viewBox="0 0 24 20" fill="none" xmlns="http://www.w3.org/2000/svg" class="icon-menu">
<path d="M22.5882 11.4118H1.41176C0.635294 11.4118 0 10.7765 0 9.99999C0 9.22352 0.635294 8.58823 1.41176 8.58823H22.5882C23.3647 8.58823 24 9.22352 24 9.99999C24 10.7765 23.3647 11.4118 22.5882 11.4118ZM22.5882 3.29411H1.41176C0.635294 3.29411 0 2.65882 0 1.88235C0 1.10588 0.635294 0.470581 1.41176 0.470581H22.5882C23.3647 0.470581 24 1.10588 24 1.88235C24 2.65882 23.3647 3.29411 22.5882 3.29411ZM22.5882 19.5294H1.41176C0.635294 19.5294 0 18.8941 0 18.1176C0 17.3412 0.635294 16.7059 1.41176 16.7059H22.5882C23.3647 16.7059 24 17.3412 24 18.1176C24 18.8941 23.3647 19.5294 22.5882 19.5294Z" fill="black"/>
</svg>
